<?xml version="1.0" encoding="UTF-8" standalone="no"?>
<svg width="32px" height="28px" viewBox="0 0 32 28" version="1.1" xmlns="http://www.w3.org/2000/svg" xmlns:xlink="http://www.w3.org/1999/xlink">
    <!-- Generator: Sketch 3.7 (28169) - http://www.bohemiancoding.com/sketch -->
    <title>Astronaut</title>
    <desc>Created with Sketch.</desc>
    <defs></defs>
    <g id="Welcome" stroke="none" stroke-width="1" fill="none" fill-rule="evenodd">
        <g id="App-Search" transform="translate(-779.000000, -39.000000)">
            <g id="Astronaut" transform="translate(779.000000, 39.000000)">
                <g id="secondary" transform="translate(4.000000, 5.000000)" fill="#D93059">
                    <path d="M8,16.5 C8,17.6045 7.1045,18.5 6,18.5 C4.8955,18.5 4,17.6045 4,16.5 C4,15.3955 4.8955,14.5 6,14.5 C7.1045,14.5 8,15.3955 8,16.5" id="Fill-449"></path>
                    <path d="M18,14.5 L14,14.5 C13.725,14.5 13.5,14.725 13.5,15 L13.5,16 C13.5,16.275 13.725,16.5 14,16.5 L18,16.5 C18.275,16.5 18.5,16.275 18.5,16 L18.5,15 C18.5,14.725 18.275,14.5 18,14.5 L18,14.5 Z M14,16 L18,16 L18,15 L14,15 L14,16 Z" id="Fill-450"></path>
                    <path d="M27.5,18.5 L26,18.5 C25.725,18.5 25.5,18.725 25.5,19 L25.5,21 C25.5,21.275 25.725,21.5 26,21.5 L27.5,21.5 C27.775,21.5 28,21.275 28,21 L28,19 C28,18.725 27.775,18.5 27.5,18.5 L27.5,18.5 Z M26,21 L27.5,21 L27.5,19 L26,19 L26,21 Z" id="Fill-451"></path>
                    <path d="M22,0.5 C22.827,0.5 23.5,1.173 23.5,2 L23.5,5.5 L21.1845,5.5 L21.1485,6 L24,6 L24,2 C24,0.8955 23.1045,0 22,0 L17.4905,0 L17.816,0.5 L22,0.5 L22,0.5 Z M6.48,0 L2,0 C0.8955,0 0,0.8955 0,2 L0,6 L2.7165,6 L2.7525,5.5 L0.5,5.5 L0.5,2 C0.5,1.173 1.173,0.5 2,0.5 L6.0815,0.5 L6.48,0 Z" id="Fill-442"></path>
                    <path d="M5.75,5.5 C5.612,5.5 5.5,5.388 5.5,5.25 C5.5,3.48 7.3175,1.5 9.75,1.5 C9.888,1.5 10,1.612 10,1.75 C10,1.888 9.888,2 9.75,2 C7.6035,2 6,3.716 6,5.25 C6,5.388 5.888,5.5 5.75,5.5" id="Fill-445"></path>
                </g>
                <g id="primary" fill="#454870">
                    <polygon id="Fill-446" points="15.5 28 16.5 28 16.5 18.5 15.5 18.5"></polygon>
                    <path d="M23.5,0.5 C24.327,0.5 25,1.173 25,2 L25,5 L21.4905,5 L21.8725,5.5 L25.5,5.5 L25.5,2 C25.5,0.9 24.6,0 23.5,0 L8.5,0 C7.4,0 6.5,0.9 6.5,2 L6.5,5.5 L10.0815,5.5 L10.48,5 L7,5 L7,2 C7,1.173 7.673,0.5 8.5,0.5 L23.5,0.5" id="Page-1"></path>
                    <polygon id="Fill-441" points="26.5 11 26.5 18 5.5 18 5.5 11 6.713 11 6.713 10.49995 5 10.49995 5 18.49995 27 18.49995 27 10.49995 25.2175 10.49995 25.1995 11"></polygon>
                    <path d="M16,2.5 C11.5815,2.5 8,6.0815 8,10.5 C8,14.9185 11.5815,18.5 16,18.5 C20.4185,18.5 24,14.9185 24,10.5 C24,6.0815 20.4185,2.5 16,2.5 M16,3 C20.1355,3 23.5,6.3645 23.5,10.5 C23.5,14.6355 20.1355,18 16,18 C11.8645,18 8.5,14.6355 8.5,10.5 C8.5,6.3645 11.8645,3 16,3" id="Fill-436"></path>
                    <path d="M16,5 C11.5815,5 8,6.0815 8,10.5 C8,14.9185 11.5815,17 16,17 C20.4185,17 24,14.9185 24,10.5 C24,6.0815 20.4185,5 16,5 M16,5.5 C21.187,5.5 23.5,7.042 23.5,10.5 C23.5,14.257 20.6965,16.5 16,16.5 C11.3035,16.5 8.5,14.257 8.5,10.5 C8.5,7.042 10.813,5.5 16,5.5" id="Fill-437"></path>
                    <path d="M26,18 L6,18 C2.6865,18 0,20.6865 0,24 L0,28 L32,28 L32,24 C32,20.6865 29.3135,18 26,18 M26,18.5 C29.0325,18.5 31.5,20.9675 31.5,24 L31.5,27.5 L0.5,27.5 L0.5,24 C0.5,20.9675 2.9675,18.5 6,18.5 L26,18.5" id="Fill-438"></path>
                    <path d="M8.5,8.5 L7.5,8.5 C6.9475,8.5 6.5,8.9475 6.5,9.5 L6.5,11.5 C6.5,12.0525 6.9475,12.5 7.5,12.5 L8.5,12.5 L8.5,8.5 Z M8,9 L8,12 L7.5,12 C7.2245,12 7,11.7755 7,11.5 L7,9.5 C7,9.2245 7.2245,9 7.5,9 L8,9 L8,9 Z" id="Fill-439"></path>
                    <path d="M24.5,8.5 L23.5,8.5 L23.5,12.5 L24.5,12.5 C25.0525,12.5 25.5,12.0525 25.5,11.5 L25.5,9.5 C25.5,8.9475 25.0525,8.5 24.5,8.5 M24.5,9 C24.7755,9 25,9.2245 25,9.5 L25,11.5 C25,11.7755 24.7755,12 24.5,12 L24,12 L24,9 L24.5,9" id="Fill-440"></path>
                    <path d="M24.25,4 L24.25,4 C24.1125,4 24,4.1125 24,4.25 L24,8.75 C24,8.8875 24.1125,9 24.25,9 C24.3875,9 24.5,8.8875 24.5,8.75 L24.5,4.25 C24.5,4.1125 24.3875,4 24.25,4" id="Fill-444"></path>
                    <polygon id="Fill-447" points="25 28 25.5 28 25.5 18.5 25 18.5"></polygon>
                    <polygon id="Fill-448" points="6.5 28 7 28 7 18.5 6.5 18.5"></polygon>
                </g>
            </g>
        </g>
    </g>
</svg>